<svg width="1440" height="1000" viewBox="0 0 1440 1000" fill="none" xmlns="http://www.w3.org/2000/svg">
<rect x="-0.286133" width="1440" height="1000" fill="#1565D8"></rect>
<mask id="mask0_0_647" style="mask-type: alpha" maskUnits="userSpaceOnUse" x="-1" y="0" width="1441" height="1000">
<rect x="-0.286133" width="1440" height="1000" fill="white"></rect>
</mask>
<g mask="url('#mask0_0_647')">
<path opacity="0.15" fill-rule="evenodd" clip-rule="evenodd" d="M-163 492C164.505 492 430 226.505 430 -101C430 -428.505 164.505 -694 -163 -694C-490.505 -694 -756 -428.505 -756 -101C-756 226.505 -490.505 492 -163 492ZM-163 292C-380.048 292 -556 116.048 -556 -101C-556 -318.048 -380.048 -494 -163 -494C54.0479 -494 230 -318.048 230 -101C230 116.048 54.0479 292 -163 292Z" fill="url('#paint0_linear_0_647')"></path>
<path opacity="0.15" fill-rule="evenodd" clip-rule="evenodd" d="M1615 1240C1942.5 1240 2208 974.505 2208 647C2208 319.495 1942.5 54 1615 54C1287.5 54 1022 319.495 1022 647C1022 974.505 1287.5 1240 1615 1240ZM1615 1040C1397.95 1040 1222 864.048 1222 647C1222 429.952 1397.95 254 1615 254C1832.05 254 2008 429.952 2008 647C2008 864.048 1832.05 1040 1615 1040Z" fill="url('#paint1_linear_0_647')"></path>
<path opacity="0.08" fill-rule="evenodd" clip-rule="evenodd" d="M421.981 550.408C426.651 547.711 432.405 547.711 437.075 550.408L487.342 579.429C492.012 582.125 494.889 587.108 494.889 592.501V650.543C494.889 655.936 492.012 660.919 487.342 663.615L437.075 692.636C432.405 695.333 426.651 695.333 421.981 692.636L371.715 663.615C367.045 660.919 364.168 655.936 364.168 650.543V592.501C364.168 587.108 367.045 582.125 371.715 579.429L421.981 550.408Z" fill="white"></path>
<g opacity="0.2">
<mask id="mask1_0_647" style="mask-type: alpha" maskUnits="userSpaceOnUse" x="355" y="540" width="131" height="147">
<path fill-rule="evenodd" clip-rule="evenodd" d="M412.925 542.357C417.595 539.661 423.349 539.661 428.019 542.357L478.285 571.378C482.955 574.075 485.832 579.058 485.832 584.451V642.493C485.832 647.886 482.955 652.869 478.285 655.565L428.019 684.586C423.349 687.282 417.595 687.282 412.925 684.586L362.658 655.565C357.988 652.869 355.111 647.886 355.111 642.493V584.451C355.111 579.058 357.988 574.075 362.658 571.378L412.925 542.357Z" fill="white"></path>
</mask>
<g mask="url('#mask1_0_647')">
<path fill-rule="evenodd" clip-rule="evenodd" d="M445.278 488.273L588.123 794.604L589.382 794.017L446.538 487.686L445.278 488.273ZM581.173 794.604L438.328 488.273L439.588 487.686L582.433 794.017L581.173 794.604ZM431.379 488.273L574.224 794.604L575.483 794.017L432.639 487.686L431.379 488.273ZM567.274 794.604L424.429 488.273L425.689 487.686L568.534 794.017L567.274 794.604ZM417.48 488.273L560.325 794.604L561.584 794.017L418.74 487.686L417.48 488.273ZM553.375 794.604L410.53 488.273L411.79 487.686L554.635 794.017L553.375 794.604ZM403.581 488.273L546.426 794.604L547.685 794.017L404.841 487.686L403.581 488.273ZM539.476 794.604L396.632 488.273L397.891 487.686L540.736 794.017L539.476 794.604ZM389.682 488.273L532.527 794.604L533.786 794.017L390.942 487.686L389.682 488.273ZM525.577 794.604L382.733 488.273L383.992 487.686L526.837 794.017L525.577 794.604ZM375.783 488.273L518.628 794.604L519.887 794.017L377.043 487.686L375.783 488.273ZM511.678 794.604L368.834 488.273L370.093 487.686L512.938 794.017L511.678 794.604ZM361.884 488.273L504.729 794.604L505.988 794.017L363.144 487.686L361.884 488.273ZM497.779 794.604L354.935 488.273L356.194 487.686L499.039 794.017L497.779 794.604ZM347.985 488.273L490.83 794.604L492.09 794.017L349.245 487.686L347.985 488.273ZM483.88 794.604L341.036 488.273L342.295 487.686L485.14 794.017L483.88 794.604ZM334.086 488.273L476.931 794.604L478.191 794.017L335.346 487.686L334.086 488.273ZM469.981 794.604L327.137 488.273L328.396 487.686L471.241 794.017L469.981 794.604ZM320.187 488.273L463.032 794.604L464.292 794.017L321.447 487.686L320.187 488.273ZM456.082 794.604L313.238 488.273L314.497 487.686L457.342 794.017L456.082 794.604ZM306.288 488.273L449.133 794.604L450.393 794.017L307.548 487.686L306.288 488.273ZM442.184 794.604L299.339 488.273L300.598 487.686L443.443 794.017L442.184 794.604ZM292.389 488.273L435.234 794.604L436.494 794.017L293.649 487.686L292.389 488.273ZM428.285 794.604L285.44 488.273L286.7 487.686L429.544 794.017L428.285 794.604ZM278.49 488.273L421.335 794.604L422.595 794.017L279.75 487.686L278.49 488.273ZM271.541 488.273L414.386 794.604L415.645 794.017L272.801 487.686L271.541 488.273Z" fill="white"></path>
</g>
</g>
<path opacity="0.1" fill-rule="evenodd" clip-rule="evenodd" d="M1052 567C1053.66 567 1055 565.657 1055 564C1055 562.343 1053.66 561 1052 561C1050.34 561 1049 562.343 1049 564C1049 565.657 1050.34 567 1052 567ZM1055 580C1055 581.657 1053.66 583 1052 583C1050.34 583 1049 581.657 1049 580C1049 578.343 1050.34 577 1052 577C1053.66 577 1055 578.343 1055 580ZM1052 599C1053.66 599 1055 597.657 1055 596C1055 594.343 1053.66 593 1052 593C1050.34 593 1049 594.343 1049 596C1049 597.657 1050.34 599 1052 599ZM1055 612C1055 613.657 1053.66 615 1052 615C1050.34 615 1049 613.657 1049 612C1049 610.343 1050.34 609 1052 609C1053.66 609 1055 610.343 1055 612ZM1052 631C1053.66 631 1055 629.657 1055 628C1055 626.343 1053.66 625 1052 625C1050.34 625 1049 626.343 1049 628C1049 629.657 1050.34 631 1052 631ZM1055 644C1055 645.657 1053.66 647 1052 647C1050.34 647 1049 645.657 1049 644C1049 642.343 1050.34 641 1052 641C1053.66 641 1055 642.343 1055 644ZM1052 663C1053.66 663 1055 661.657 1055 660C1055 658.343 1053.66 657 1052 657C1050.34 657 1049 658.343 1049 660C1049 661.657 1050.34 663 1052 663ZM959 676C959 677.657 957.657 679 956 679C954.343 679 953 677.657 953 676C953 674.343 954.343 673 956 673C957.657 673 959 674.343 959 676ZM972 679C973.657 679 975 677.657 975 676C975 674.343 973.657 673 972 673C970.343 673 969 674.343 969 676C969 677.657 970.343 679 972 679ZM991 676C991 677.657 989.657 679 988 679C986.343 679 985 677.657 985 676C985 674.343 986.343 673 988 673C989.657 673 991 674.343 991 676ZM1004 679C1005.66 679 1007 677.657 1007 676C1007 674.343 1005.66 673 1004 673C1002.34 673 1001 674.343 1001 676C1001 677.657 1002.34 679 1004 679ZM1023 676C1023 677.657 1021.66 679 1020 679C1018.34 679 1017 677.657 1017 676C1017 674.343 1018.34 673 1020 673C1021.66 673 1023 674.343 1023 676ZM1036 679C1037.66 679 1039 677.657 1039 676C1039 674.343 1037.66 673 1036 673C1034.34 673 1033 674.343 1033 676C1033 677.657 1034.34 679 1036 679ZM1052 679C1053.66 679 1055 677.657 1055 676C1055 674.343 1053.66 673 1052 673C1050.34 673 1049 674.343 1049 676C1049 677.657 1050.34 679 1052 679ZM1039 660C1039 661.657 1037.66 663 1036 663C1034.34 663 1033 661.657 1033 660C1033 658.343 1034.34 657 1036 657C1037.66 657 1039 658.343 1039 660ZM1020 663C1021.66 663 1023 661.657 1023 660C1023 658.343 1021.66 657 1020 657C1018.34 657 1017 658.343 1017 660C1017 661.657 1018.34 663 1020 663ZM1007 660C1007 661.657 1005.66 663 1004 663C1002.34 663 1001 661.657 1001 660C1001 658.343 1002.34 657 1004 657C1005.66 657 1007 658.343 1007 660ZM988 663C989.657 663 991 661.657 991 660C991 658.343 989.657 657 988 657C986.343 657 985 658.343 985 660C985 661.657 986.343 663 988 663ZM975 660C975 661.657 973.657 663 972 663C970.343 663 969 661.657 969 660C969 658.343 970.343 657 972 657C973.657 657 975 658.343 975 660ZM956 663C957.657 663 959 661.657 959 660C959 658.343 957.657 657 956 657C954.343 657 953 658.343 953 660C953 661.657 954.343 663 956 663ZM1036 647C1037.66 647 1039 645.657 1039 644C1039 642.343 1037.66 641 1036 641C1034.34 641 1033 642.343 1033 644C1033 645.657 1034.34 647 1036 647ZM1023 644C1023 645.657 1021.66 647 1020 647C1018.34 647 1017 645.657 1017 644C1017 642.343 1018.34 641 1020 641C1021.66 641 1023 642.343 1023 644ZM1004 647C1005.66 647 1007 645.657 1007 644C1007 642.343 1005.66 641 1004 641C1002.34 641 1001 642.343 1001 644C1001 645.657 1002.34 647 1004 647ZM991 644C991 645.657 989.657 647 988 647C986.343 647 985 645.657 985 644C985 642.343 986.343 641 988 641C989.657 641 991 642.343 991 644ZM972 647C973.657 647 975 645.657 975 644C975 642.343 973.657 641 972 641C970.343 641 969 642.343 969 644C969 645.657 970.343 647 972 647ZM959 644C959 645.657 957.657 647 956 647C954.343 647 953 645.657 953 644C953 642.343 954.343 641 956 641C957.657 641 959 642.343 959 644ZM1039 628C1039 629.657 1037.66 631 1036 631C1034.34 631 1033 629.657 1033 628C1033 626.343 1034.34 625 1036 625C1037.66 625 1039 626.343 1039 628ZM1020 631C1021.66 631 1023 629.657 1023 628C1023 626.343 1021.66 625 1020 625C1018.34 625 1017 626.343 1017 628C1017 629.657 1018.34 631 1020 631ZM1007 628C1007 629.657 1005.66 631 1004 631C1002.34 631 1001 629.657 1001 628C1001 626.343 1002.34 625 1004 625C1005.66 625 1007 626.343 1007 628ZM988 631C989.657 631 991 629.657 991 628C991 626.343 989.657 625 988 625C986.343 625 985 626.343 985 628C985 629.657 986.343 631 988 631ZM975 628C975 629.657 973.657 631 972 631C970.343 631 969 629.657 969 628C969 626.343 970.343 625 972 625C973.657 625 975 626.343 975 628ZM956 631C957.657 631 959 629.657 959 628C959 626.343 957.657 625 956 625C954.343 625 953 626.343 953 628C953 629.657 954.343 631 956 631ZM1036 615C1037.66 615 1039 613.657 1039 612C1039 610.343 1037.66 609 1036 609C1034.34 609 1033 610.343 1033 612C1033 613.657 1034.34 615 1036 615ZM1023 612C1023 613.657 1021.66 615 1020 615C1018.34 615 1017 613.657 1017 612C1017 610.343 1018.34 609 1020 609C1021.66 609 1023 610.343 1023 612ZM1004 615C1005.66 615 1007 613.657 1007 612C1007 610.343 1005.66 609 1004 609C1002.34 609 1001 610.343 1001 612C1001 613.657 1002.34 615 1004 615ZM991 612C991 613.657 989.657 615 988 615C986.343 615 985 613.657 985 612C985 610.343 986.343 609 988 609C989.657 609 991 610.343 991 612ZM972 615C973.657 615 975 613.657 975 612C975 610.343 973.657 609 972 609C970.343 609 969 610.343 969 612C969 613.657 970.343 615 972 615ZM959 612C959 613.657 957.657 615 956 615C954.343 615 953 613.657 953 612C953 610.343 954.343 609 956 609C957.657 609 959 610.343 959 612ZM1039 596C1039 597.657 1037.66 599 1036 599C1034.34 599 1033 597.657 1033 596C1033 594.343 1034.34 593 1036 593C1037.66 593 1039 594.343 1039 596ZM1020 599C1021.66 599 1023 597.657 1023 596C1023 594.343 1021.66 593 1020 593C1018.34 593 1017 594.343 1017 596C1017 597.657 1018.34 599 1020 599ZM1007 596C1007 597.657 1005.66 599 1004 599C1002.34 599 1001 597.657 1001 596C1001 594.343 1002.34 593 1004 593C1005.66 593 1007 594.343 1007 596ZM988 599C989.657 599 991 597.657 991 596C991 594.343 989.657 593 988 593C986.343 593 985 594.343 985 596C985 597.657 986.343 599 988 599ZM975 596C975 597.657 973.657 599 972 599C970.343 599 969 597.657 969 596C969 594.343 970.343 593 972 593C973.657 593 975 594.343 975 596ZM956 599C957.657 599 959 597.657 959 596C959 594.343 957.657 593 956 593C954.343 593 953 594.343 953 596C953 597.657 954.343 599 956 599ZM1036 583C1037.66 583 1039 581.657 1039 580C1039 578.343 1037.66 577 1036 577C1034.34 577 1033 578.343 1033 580C1033 581.657 1034.34 583 1036 583ZM1023 580C1023 581.657 1021.66 583 1020 583C1018.34 583 1017 581.657 1017 580C1017 578.343 1018.34 577 1020 577C1021.66 577 1023 578.343 1023 580ZM1004 583C1005.66 583 1007 581.657 1007 580C1007 578.343 1005.66 577 1004 577C1002.34 577 1001 578.343 1001 580C1001 581.657 1002.34 583 1004 583ZM991 580C991 581.657 989.657 583 988 583C986.343 583 985 581.657 985 580C985 578.343 986.343 577 988 577C989.657 577 991 578.343 991 580ZM972 583C973.657 583 975 581.657 975 580C975 578.343 973.657 577 972 577C970.343 577 969 578.343 969 580C969 581.657 970.343 583 972 583ZM959 580C959 581.657 957.657 583 956 583C954.343 583 953 581.657 953 580C953 578.343 954.343 577 956 577C957.657 577 959 578.343 959 580ZM1039 564C1039 565.657 1037.66 567 1036 567C1034.34 567 1033 565.657 1033 564C1033 562.343 1034.34 561 1036 561C1037.66 561 1039 562.343 1039 564ZM1020 567C1021.66 567 1023 565.657 1023 564C1023 562.343 1021.66 561 1020 561C1018.34 561 1017 562.343 1017 564C1017 565.657 1018.34 567 1020 567ZM1007 564C1007 565.657 1005.66 567 1004 567C1002.34 567 1001 565.657 1001 564C1001 562.343 1002.34 561 1004 561C1005.66 561 1007 562.343 1007 564ZM988 567C989.657 567 991 565.657 991 564C991 562.343 989.657 561 988 561C986.343 561 985 562.343 985 564C985 565.657 986.343 567 988 567ZM975 564C975 565.657 973.657 567 972 567C970.343 567 969 565.657 969 564C969 562.343 970.343 561 972 561C973.657 561 975 562.343 975 564ZM956 567C957.657 567 959 565.657 959 564C959 562.343 957.657 561 956 561C954.343 561 953 562.343 953 564C953 565.657 954.343 567 956 567Z" fill="white"></path>
</g>
<path fill-rule="evenodd" clip-rule="evenodd" d="M1441 999H1V824C241 877.333 481 904 721 904C961 904 1201 877.333 1441 824V999Z" fill="white"></path>
<defs>
<linearGradient id="paint0_linear_0_647" x1="430" y1="-692.419" x2="-752.838" y2="-692.419" gradientUnits="userSpaceOnUse">
<stop stop-color="white" stop-opacity="0.01"></stop>
<stop offset="1" stop-color="white"></stop>
</linearGradient>
<linearGradient id="paint1_linear_0_647" x1="2208" y1="55.5808" x2="1025.16" y2="55.5808" gradientUnits="userSpaceOnUse">
<stop stop-color="white"></stop>
<stop offset="1" stop-color="white" stop-opacity="0.01"></stop>
</linearGradient>
</defs>
</svg>
